<svg width="1920" height="1080" viewBox="0 0 1920 1080" fill="none" xmlns="http://www.w3.org/2000/svg">
  <defs>
    <linearGradient id="bg" x1="960" y1="0" x2="960" y2="1080" gradientUnits="userSpaceOnUse">
      <stop offset="0" stop-color="#02090D"/>
      <stop offset="1" stop-color="#000305"/>
    </linearGradient>
    <linearGradient id="tealA" x1="0" y1="0" x2="1" y2="0">
      <stop offset="0" stop-color="#3EF4E6" stop-opacity="0.85"/>
      <stop offset="1" stop-color="#3EF4E6" stop-opacity="0"/>
    </linearGradient>
    <linearGradient id="tealB" x1="1" y1="0" x2="0" y2="0">
      <stop offset="0" stop-color="#3EF4E6" stop-opacity="0.85"/>
      <stop offset="1" stop-color="#3EF4E6" stop-opacity="0"/>
    </linearGradient>
  </defs>
  <rect width="1920" height="1080" fill="url(#bg)"/>

  <polygon points="0,300 280,420 280,820 0,940" fill="url(#tealA)"/>
  <polygon points="280,420 760,540 760,780 280,820" fill="url(#tealA)" opacity="0.85"/>
  <polygon points="760,540 920,620 920,700 760,780" fill="url(#tealA)" opacity="0.7"/>

  <polygon points="1920,300 1640,420 1640,820 1920,940" fill="url(#tealB)"/>
  <polygon points="1640,420 1160,540 1160,780 1640,820" fill="url(#tealB)" opacity="0.85"/>
  <polygon points="1160,540 1000,620 1000,700 1160,780" fill="url(#tealB)" opacity="0.7"/>

  <rect x="910" y="0" width="100" height="1080" fill="#00070A"/>
</svg>
